<!-- Generated by IcoMoon.io -->
<svg version="1.1" xmlns="http://www.w3.org/2000/svg" width="60" height="60" viewBox="0 0 60 60">
<title>success</title>
<path d="M10.181 49.819c-10.908-10.908-10.908-28.731 0-39.638s28.731-10.908 39.638 0c10.908 10.908 10.908 28.731 0 39.638s-28.731 10.908-39.638 0zM13.269 46.731c9.202 9.202 24.259 9.202 33.461 0s9.202-24.259 0-33.461c-9.202-9.202-24.259-9.202-33.461 0s-9.202 24.259 0 33.461zM18.737 29.714l6.946 6.946 16.322-16.4c0.884-0.889 2.321-0.892 3.21-0.008s0.892 2.321 0.008 3.21l-17.927 18.013c-0.886 0.89-2.326 0.892-3.214 0.004l-8.555-8.555c-0.886-0.886-0.886-2.324 0-3.21s2.324-0.886 3.21 0z"></path>
</svg>
