<?xml version="1.0" encoding="utf-8"?>
<!-- Generator: Adobe Illustrator 22.0.1, SVG Export Plug-In . SVG Version: 6.00 Build 0)  -->
<svg version="1.1" id="Layer_1" xmlns="http://www.w3.org/2000/svg" xmlns:xlink="http://www.w3.org/1999/xlink" x="0px" y="0px"
	 viewBox="0 0 34.4 34.2" style="enable-background:new 0 0 34.4 34.2;" xml:space="preserve">
<style type="text/css">
	.st0{fill:#4D4D4D;}
	.st1{fill:#25C16F;}
	.st2{fill:#FFFFFF;}
	.st3{fill:#2F2724;}
	.st4{fill:#4D4D4D;stroke:#4D4D4D;stroke-width:0.5;stroke-miterlimit:10;}
	.st5{fill:#BCBC26;stroke:#BCBC26;stroke-linecap:round;stroke-miterlimit:10;}
	.st6{fill:#FFFFFF;}
</style>
<g>
	<g>
		<g>
			<path class="st2" d="M17.2,34.2L17.2,34.2c-9.4,0-17-7.6-17-17v0c0-9.4,7.6-17,17-17H30c2.4,0,4.3,1.9,4.3,4.3v12.8
				C34.3,26.5,26.6,34.2,17.2,34.2z"/>
		</g>
	</g>
	<g>
		<g>
			<path class="st3" d="M23.1,24.1h-11c-1.1,0-2-0.9-2-2v-10c0-1.1,0.9-2,2-2h11c1.1,0,2,0.9,2,2v10C25.1,23.2,24.2,24.1,23.1,24.1z
				"/>
		</g>
	</g>
	<g>
		<g>
			<path class="st6" d="M22.6,14h-10c-0.3,0-0.5-0.2-0.5-0.5s0.2-0.5,0.5-0.5h10c0.3,0,0.5,0.2,0.5,0.5S22.8,14,22.6,14z"/>
		</g>
	</g>
	<g>
		<g>
			<path class="st6" d="M22.6,17h-10c-0.3,0-0.5-0.2-0.5-0.5s0.2-0.5,0.5-0.5h10c0.3,0,0.5,0.2,0.5,0.5S22.8,17,22.6,17z"/>
		</g>
	</g>
	<g>
		<g>
			<path class="st6" d="M17.6,20h-5c-0.3,0-0.5-0.2-0.5-0.5s0.2-0.5,0.5-0.5h5c0.3,0,0.5,0.2,0.5,0.5S17.8,20,17.6,20z"/>
		</g>
	</g>
</g>
</svg>
