<?xml version="1.0" encoding="UTF-8"?>
<svg xmlns:xlink="http://www.w3.org/1999/xlink" height="36px" version="1.1" viewBox="0 0 36 36" width="36px"
  xmlns="http://www.w3.org/2000/svg">
  <!-- Generator: Sketch 46.2 (44496) - http://www.bohemiancoding.com/sketch -->
  <title>fm-logo-light</title>
  <desc>Created with Sketch.</desc>
  <defs>
    <polygon id="path-1" points="0 34.0981 0 0.0003 34.098 0.0003 34.098 34.0981"></polygon>
  </defs>
  <g fill="none" fill-rule="evenodd" id="Color-&amp;-Icon" stroke="none" stroke-width="1">
    <g id="fm-logo-light">
      <g id="Page-1" transform="translate(1.000000, 1.000000)">
        <mask fill="white" id="mask-2">
          <use xlink:href="#path-1"></use>
        </mask>
        <g id="Clip-2"></g>
        <path
          d="M24.3286,18.8571 C23.8056,18.8571 23.3816,17.6801 23.3816,16.2291 C23.3816,14.7771 23.8056,13.6001 24.3286,13.6001 C24.8516,13.6001 25.2756,14.7771 25.2756,16.2291 C25.2756,17.6801 24.8516,18.8571 24.3286,18.8571 M22.5596,22.8251 C22.6556,23.0391 22.4326,23.2551 22.2226,23.1531 L15.8006,20.0241 C15.7016,19.9761 15.5996,19.9351 15.4966,19.8971 L15.9956,22.7231 C16.1156,23.4061 15.6596,24.0571 14.9766,24.1771 C14.2946,24.2971 13.6426,23.8411 13.5226,23.1591 L12.8776,19.5001 L12.7716,19.4881 C11.1166,19.2961 9.8676,17.8951 9.8676,16.2291 C9.8676,14.5621 11.1166,13.1611 12.7716,12.9701 L14.7406,12.7431 C15.1086,12.7011 15.4676,12.5951 15.8006,12.4331 L22.2226,9.3051 C22.4326,9.2021 22.6556,9.4191 22.5596,9.6331 C21.9926,10.9111 21.6066,13.3851 21.6066,16.2291 C21.6066,19.0721 21.9926,21.5471 22.5596,22.8251 M29.8356,0.0001 L17.0496,0.0001 C7.6336,0.0001 -0.0004,7.6331 -0.0004,17.0491 C-0.0004,26.4651 7.6336,34.0981 17.0496,34.0981 C26.4656,34.0981 34.0986,26.4651 34.0986,17.0491 L34.0986,4.2621 C34.0986,1.9081 32.1896,0.0001 29.8356,0.0001"
          fill="#FFFFFF" id="Fill-1" mask="url(#mask-2)"></path>
      </g>
    </g>
  </g>
</svg>
