<?xml version="1.0" encoding="UTF-8"?>
<svg width="60px" height="60px" viewBox="0 0 60 60" version="1.1" xmlns="http://www.w3.org/2000/svg" xmlns:xlink="http://www.w3.org/1999/xlink">
    <!-- Generator: Sketch 44.1 (41455) - http://www.bohemiancoding.com/sketch -->
    <title>export</title>
    <desc>Created with Sketch.</desc>
    <defs></defs>
    <g id="NEW-ICONS" stroke="none" stroke-width="1" fill="none" fill-rule="evenodd">
        <g id="export" fill-rule="nonzero" fill="#183247">
            <path d="M32.3948442,13.222331 L32.3948442,42.0615813 C32.3948442,43.3928689 31.3226359,44.4720907 30,44.4720907 C28.6773641,44.4720907 27.6051558,43.3928689 27.6051558,42.0615813 L27.6051558,13.222331 L19.7176105,21.1466837 C18.7814943,22.0871683 17.2651635,22.0857456 16.3307909,21.1435061 C15.3964182,20.2012666 15.3978316,18.6750171 16.3339478,17.7345325 L28.3081687,5.70443379 C29.2430511,4.76518874 30.7569489,4.76518874 31.6918313,5.70443379 L43.6660522,17.7345325 C44.6021684,18.6750171 44.6035818,20.2012666 43.6692091,21.1435061 C42.7348365,22.0857456 41.2185057,22.0871683 40.2823895,21.1466837 L32.3948442,13.222331 Z M10.2712237,7.81792214 C11.2097547,6.87987899 12.7260767,6.8852512 13.6580238,7.8299213 C14.5899709,8.77459141 14.5846336,10.3008321 13.6461026,11.2388752 C9.28453769,15.5981731 6.78968833,21.5054382 6.78968833,27.816846 C6.78968833,40.719397 17.1812988,51.1789813 30,51.1789813 C42.8187012,51.1789813 53.2103117,40.719397 53.2103117,27.816846 C53.2103117,21.5237935 50.7300556,15.6322848 46.3909473,11.2759888 C45.4545031,10.3358352 45.4525571,8.80958635 46.386601,7.86701661 C47.3206448,6.92444687 48.836975,6.92248822 49.7734193,7.86264184 C55.0044891,13.1144325 58,20.2298585 58,27.816846 C58,43.3819722 45.463973,56 30,56 C14.536027,56 2,43.3819722 2,27.816846 C2,20.2077052 5.01311582,13.073297 10.2712237,7.81792214 Z" id="Combined-Shape"></path>
        </g>
    </g>
</svg>