<!-- Generated by IcoMoon.io -->
<svg version="1.1" xmlns="http://www.w3.org/2000/svg" width="32" height="32" viewBox="0 0 32 32">
<title>admin</title>
<path d="M23.493 24.692c-0.76-1.313-0.75-2.934 0.026-4.238 0.774-1.3 2.178-2.098 3.694-2.098h1.161v-4.361h-0.851c-1.637 0-3.148-0.876-3.959-2.295-0.809-1.417-0.804-3.156 0.013-4.569l0.427-0.737-3.76-2.165-0.483 0.835c-0.787 1.36-2.242 2.197-3.817 2.196s-3.028-0.839-3.815-2.199l-0.486-0.839-3.786 2.18 0.433 0.748c0.815 1.408 0.821 3.142 0.015 4.555-0.807 1.416-2.313 2.29-3.946 2.29h-0.734v4.361h1.028c1.521 0 2.929 0.799 3.707 2.103 0.78 1.308 0.79 2.934 0.027 4.252l-0.518 0.895 3.76 2.165 0.483-0.835c0.787-1.36 2.242-2.197 3.817-2.196s3.028 0.839 3.815 2.199l0.486 0.839 3.786-2.18-0.524-0.906zM25.863 24.745c0.509 0.88 0.207 2.005-0.675 2.512l-4.102 2.362c-0.882 0.508-2.010 0.206-2.519-0.673l-0.577-0.997c-0.425-0.735-1.211-1.188-2.062-1.188s-1.635 0.451-2.060 1.185l-0.574 0.992c-0.509 0.88-1.637 1.181-2.519 0.673l-4.076-2.347c-0.882-0.508-1.184-1.633-0.675-2.512l0.609-1.052c0.396-0.684 0.391-1.529-0.014-2.208-0.412-0.691-1.159-1.115-1.965-1.115h-1.211c-1.018 0-1.844-0.823-1.844-1.839v-4.725c0-1.016 0.826-1.839 1.844-1.839h0.916c0.904 0 1.738-0.484 2.184-1.268 0.45-0.79 0.447-1.759-0.009-2.546l-0.524-0.906c-0.509-0.88-0.207-2.005 0.675-2.513l4.102-2.362c0.882-0.508 2.010-0.207 2.519 0.673l0.577 0.997c0.425 0.735 1.211 1.188 2.062 1.188s1.635-0.451 2.060-1.185l0.574-0.992c0.509-0.88 1.637-1.181 2.519-0.673l4.076 2.347c0.882 0.508 1.184 1.633 0.675 2.513l-0.518 0.895c-0.458 0.791-0.461 1.764-0.008 2.558 0.45 0.788 1.289 1.274 2.198 1.274h1.034c1.018 0 1.844 0.823 1.844 1.839v4.725c0 1.016-0.826 1.839-1.844 1.839h-1.344c-0.801 0-1.542 0.421-1.951 1.108-0.402 0.676-0.407 1.515-0.013 2.196l0.616 1.064zM15.937 21.779c-3.206 0-5.807-2.587-5.807-5.779s2.6-5.779 5.807-5.779c3.206 0 5.807 2.587 5.807 5.779s-2.6 5.779-5.807 5.779zM15.937 19.758c2.088 0 3.78-1.683 3.78-3.758s-1.692-3.758-3.78-3.758c-2.088 0-3.78 1.683-3.78 3.758s1.692 3.758 3.78 3.758z"></path>
</svg>
